<svg id="svg" version="1.1" xmlns="http://www.w3.org/2000/svg" xmlns:xlink="http://www.w3.org/1999/xlink" width="400" height="400" viewBox="0, 0, 400,400"><g id="svgg"><path id="path0" d="M151.969 114.369 C 151.326 115.012,150.789 115.777,150.775 116.069 C 150.762 116.361,150.619 117.912,150.458 119.515 C 150.180 122.296,150.216 122.488,151.239 123.715 L 152.312 125.000 200.200 125.000 L 248.088 125.000 249.161 123.715 C 250.184 122.488,250.220 122.296,249.942 119.515 C 249.781 117.912,249.638 116.361,249.625 116.069 C 249.611 115.777,249.074 115.012,248.431 114.369 L 247.262 113.200 200.200 113.200 L 153.138 113.200 151.969 114.369 M70.528 217.146 C 69.609 217.978,67.723 219.262,66.338 220.001 C 64.953 220.739,63.075 221.896,62.164 222.572 C 61.254 223.247,59.956 224.100,59.280 224.467 C 56.166 226.156,56.400 221.026,56.400 287.712 L 56.400 347.056 57.831 348.728 L 59.262 350.400 81.431 350.400 L 103.600 350.400 105.200 348.800 L 106.800 347.200 106.800 306.662 C 106.800 267.356,106.824 266.052,107.590 263.762 C 108.025 262.463,108.385 261.155,108.390 260.856 C 108.411 259.717,116.502 252.447,118.800 251.504 L 121.000 250.600 199.376 250.496 L 277.752 250.392 280.576 251.281 C 284.993 252.673,290.940 258.405,292.476 262.754 L 293.553 265.800 293.576 303.039 C 293.604 345.883,293.650 347.189,295.219 348.757 L 296.314 349.852 318.657 349.688 L 341.000 349.523 342.000 348.553 L 343.000 347.583 343.274 328.291 C 343.424 317.681,343.667 290.893,343.814 268.763 L 344.081 228.527 343.215 226.830 C 342.740 225.897,341.797 224.834,341.120 224.467 C 340.444 224.100,339.146 223.247,338.236 222.572 C 337.325 221.896,335.452 220.742,334.073 220.006 C 332.693 219.271,330.780 217.979,329.821 217.135 C 327.199 214.827,323.262 214.836,320.472 217.157 C 319.442 218.013,317.790 219.114,316.800 219.605 C 315.810 220.095,314.166 221.088,313.148 221.813 C 309.339 224.521,309.177 224.563,301.860 224.729 C 293.079 224.929,291.304 224.693,288.903 223.009 C 287.856 222.276,285.683 220.928,284.074 220.013 C 282.464 219.099,280.463 217.732,279.625 216.975 C 277.252 214.831,273.171 214.912,270.472 217.157 C 269.442 218.013,267.790 219.114,266.800 219.605 C 265.810 220.095,264.166 221.088,263.148 221.813 C 259.339 224.521,259.177 224.563,251.860 224.729 C 243.079 224.929,241.304 224.693,238.903 223.009 C 237.856 222.276,235.683 220.928,234.074 220.013 C 232.464 219.099,230.463 217.732,229.625 216.975 C 227.252 214.831,223.171 214.912,220.472 217.157 C 219.442 218.013,217.790 219.114,216.800 219.605 C 215.810 220.095,214.166 221.088,213.148 221.813 C 209.339 224.521,209.177 224.563,201.860 224.729 C 193.079 224.929,191.304 224.693,188.903 223.009 C 187.856 222.276,185.683 220.928,184.074 220.013 C 182.464 219.099,180.463 217.732,179.625 216.975 C 177.252 214.831,173.171 214.912,170.472 217.157 C 169.442 218.013,167.790 219.114,166.800 219.605 C 165.810 220.095,164.166 221.088,163.148 221.813 C 159.339 224.521,159.177 224.563,151.860 224.729 C 143.079 224.929,141.304 224.693,138.903 223.009 C 137.856 222.276,135.683 220.928,134.074 220.013 C 132.464 219.099,130.463 217.732,129.625 216.975 C 127.252 214.831,123.171 214.912,120.472 217.157 C 119.442 218.013,117.790 219.114,116.800 219.605 C 115.810 220.095,114.166 221.088,113.148 221.813 C 109.339 224.521,109.177 224.563,101.860 224.729 C 93.079 224.929,91.304 224.693,88.903 223.009 C 87.856 222.276,85.683 220.928,84.074 220.013 C 82.464 219.099,80.463 217.732,79.625 216.975 C 77.270 214.848,72.979 214.928,70.528 217.146 " stroke="none" fill="#0469ed" fill-rule="evenodd"></path><path id="path1" d="M62.600 138.217 C 58.888 138.901,58.537 139.213,56.168 143.942 C 55.328 145.619,53.959 147.730,53.125 148.635 C 52.292 149.539,50.999 151.611,50.254 153.240 C 49.018 155.938,48.451 156.707,46.068 158.922 C 45.641 159.319,44.620 161.244,43.801 163.199 C 42.932 165.270,41.589 167.598,40.581 168.778 C 35.900 174.263,37.953 175.101,56.200 175.157 C 70.702 175.202,74.757 173.840,74.793 168.915 C 74.803 167.609,76.286 163.871,77.403 162.337 C 79.783 159.069,80.548 157.704,81.391 155.228 C 82.489 151.997,83.722 149.529,84.600 148.800 C 86.105 147.551,88.558 141.442,87.984 140.370 C 86.569 137.726,71.984 136.488,62.600 138.217 M151.090 138.569 C 146.373 140.509,145.550 141.685,143.797 149.000 C 142.654 153.767,141.528 157.024,140.681 158.014 C 139.376 159.538,139.348 159.623,136.152 171.823 C 135.985 172.458,136.324 172.916,137.634 173.823 L 139.331 175.000 153.258 175.000 L 167.184 175.000 168.454 173.731 C 169.644 172.540,169.756 172.176,170.252 167.850 C 170.543 165.314,171.067 161.925,171.416 160.320 C 173.039 152.861,173.592 149.871,174.136 145.600 L 174.723 141.000 173.535 139.753 C 171.353 137.465,155.774 136.643,151.090 138.569 M231.344 138.079 C 228.460 138.426,227.950 138.616,226.883 139.736 L 225.677 141.000 226.264 145.600 C 226.808 149.871,227.361 152.861,228.984 160.320 C 229.333 161.925,229.857 165.314,230.148 167.850 C 230.644 172.176,230.756 172.540,231.946 173.731 L 233.216 175.000 247.142 175.000 L 261.069 175.000 262.766 173.823 C 264.058 172.928,264.417 172.450,264.266 171.823 C 262.185 163.166,260.875 159.277,259.570 157.875 C 258.786 157.035,257.727 153.797,256.439 148.312 C 254.976 142.079,254.069 140.740,250.012 138.838 C 247.502 137.660,238.015 137.275,231.344 138.079 M317.200 137.866 C 314.837 138.239,314.218 138.510,313.165 139.637 L 312.053 140.828 312.777 142.933 C 313.696 145.604,314.872 147.764,316.528 149.821 C 317.291 150.769,318.286 152.845,318.926 154.821 C 319.527 156.680,320.551 158.920,321.200 159.800 C 324.020 163.621,324.408 164.334,324.797 166.409 C 326.340 174.633,328.563 175.460,348.139 175.096 L 359.677 174.882 361.018 173.582 C 362.572 172.076,362.368 171.207,359.880 168.719 C 359.141 167.979,357.791 165.672,356.807 163.466 C 355.565 160.681,354.556 159.059,353.355 157.914 C 352.351 156.957,351.063 155.053,350.200 153.249 C 349.397 151.572,348.135 149.570,347.394 148.800 C 346.653 148.030,345.214 145.780,344.195 143.800 C 341.709 138.968,341.587 138.867,337.370 138.182 C 334.077 137.648,319.989 137.427,317.200 137.866 M83.319 187.984 C 81.103 189.335,80.741 190.564,81.171 195.284 C 81.791 202.086,82.201 202.970,86.708 207.217 C 92.163 212.357,92.772 212.600,100.200 212.600 C 107.628 212.600,108.237 212.357,113.692 207.217 C 118.199 202.970,118.609 202.086,119.229 195.284 C 119.972 187.119,120.170 187.203,100.200 187.203 C 85.432 187.203,84.532 187.245,83.319 187.984 M183.319 187.984 C 181.103 189.335,180.741 190.564,181.171 195.284 C 181.791 202.086,182.201 202.970,186.708 207.217 C 192.163 212.357,192.772 212.600,200.200 212.600 C 207.628 212.600,208.237 212.357,213.692 207.217 C 218.199 202.970,218.609 202.086,219.229 195.284 C 219.972 187.119,220.170 187.203,200.200 187.203 C 185.432 187.203,184.532 187.245,183.319 187.984 M283.319 187.984 C 281.103 189.335,280.741 190.564,281.171 195.284 C 281.791 202.086,282.201 202.970,286.708 207.217 C 292.163 212.357,292.772 212.600,300.200 212.600 C 307.628 212.600,308.237 212.357,313.692 207.217 C 318.199 202.970,318.609 202.086,319.229 195.284 C 319.972 187.119,320.170 187.203,300.200 187.203 C 285.432 187.203,284.532 187.245,283.319 187.984 M33.577 189.824 C 29.813 193.831,36.438 206.727,44.000 210.113 C 47.932 211.874,56.615 211.194,58.244 208.999 C 58.488 208.669,58.792 208.400,58.919 208.400 C 60.107 208.400,66.059 201.303,66.751 199.063 C 67.983 195.074,68.014 191.092,66.823 189.824 L 65.861 188.800 50.200 188.800 L 34.539 188.800 33.577 189.824 M117.190 189.790 C 118.344 191.017,118.150 195.742,116.779 199.864 C 115.710 203.076,109.484 209.316,106.164 210.502 C 95.284 214.390,83.467 206.172,82.533 194.068 C 82.297 190.996,82.341 190.714,83.210 189.790 L 84.139 188.800 100.200 188.800 L 116.261 188.800 117.190 189.790 M133.577 189.824 C 129.813 193.831,136.438 206.727,144.000 210.113 C 147.932 211.874,156.615 211.194,158.244 208.999 C 158.488 208.669,158.792 208.400,158.919 208.400 C 160.107 208.400,166.059 201.303,166.751 199.063 C 167.983 195.074,168.014 191.092,166.823 189.824 L 165.861 188.800 150.200 188.800 L 134.539 188.800 133.577 189.824 M217.190 189.790 C 218.344 191.017,218.150 195.742,216.779 199.864 C 215.710 203.076,209.484 209.316,206.164 210.502 C 195.284 214.390,183.467 206.172,182.533 194.068 C 182.297 190.996,182.341 190.714,183.210 189.790 L 184.139 188.800 200.200 188.800 L 216.261 188.800 217.190 189.790 M233.577 189.824 C 229.813 193.831,236.438 206.727,244.000 210.113 C 247.932 211.874,256.615 211.194,258.244 208.999 C 258.488 208.669,258.792 208.400,258.919 208.400 C 260.107 208.400,266.059 201.303,266.751 199.063 C 267.983 195.074,268.014 191.092,266.823 189.824 L 265.861 188.800 250.200 188.800 L 234.539 188.800 233.577 189.824 M317.190 189.790 C 318.344 191.017,318.150 195.742,316.779 199.864 C 315.710 203.076,309.484 209.316,306.164 210.502 C 295.284 214.390,283.467 206.172,282.533 194.068 C 282.297 190.996,282.341 190.714,283.210 189.790 L 284.139 188.800 300.200 188.800 L 316.261 188.800 317.190 189.790 M333.577 189.824 C 329.813 193.831,336.438 206.727,344.000 210.113 C 347.932 211.874,356.615 211.194,358.244 208.999 C 358.488 208.669,358.792 208.400,358.919 208.400 C 360.107 208.400,366.059 201.303,366.751 199.063 C 367.983 195.074,368.014 191.092,366.823 189.824 L 365.861 188.800 350.200 188.800 L 334.539 188.800 333.577 189.824 M124.800 262.469 C 120.403 263.096,119.449 264.169,118.823 269.190 C 117.948 276.206,118.270 346.782,119.184 348.281 C 120.860 351.030,118.684 350.898,157.055 350.573 L 191.622 350.280 192.745 349.002 L 193.867 347.723 194.134 318.196 C 194.639 262.194,194.735 264.748,192.044 262.832 C 190.764 261.920,130.916 261.597,124.800 262.469 M207.300 263.453 L 206.000 264.925 206.000 306.412 L 206.000 347.899 207.328 349.350 L 208.657 350.800 243.428 350.799 C 277.210 350.797,278.236 350.775,279.481 350.016 C 282.193 348.362,282.041 351.079,281.914 306.492 L 281.800 266.200 280.910 264.953 C 278.793 261.985,281.798 262.213,243.200 262.091 L 208.600 261.982 207.300 263.453 M275.595 263.784 C 281.158 264.977,280.968 263.225,280.609 310.000 C 280.330 346.290,280.298 347.425,279.543 348.245 C 278.770 349.084,211.800 350.225,209.331 349.442 C 207.116 348.739,207.200 350.439,207.200 306.327 C 207.200 262.986,207.125 264.792,208.977 263.506 C 209.830 262.914,272.760 263.177,275.595 263.784 M192.023 264.500 C 192.728 265.346,192.774 266.338,192.786 281.000 C 192.812 311.363,192.295 347.456,191.825 348.098 C 191.436 348.630,187.039 348.744,156.671 349.005 L 121.962 349.304 120.981 348.382 L 120.000 347.461 120.000 309.276 C 120.000 269.307,120.099 266.762,121.708 265.299 C 123.379 263.780,125.254 263.696,158.736 263.648 L 191.272 263.600 192.023 264.500 M176.271 301.355 C 173.869 303.758,173.893 315.280,176.306 317.691 C 179.088 320.472,186.205 319.885,187.831 316.741 C 189.231 314.033,188.870 304.321,187.291 302.197 C 185.249 299.449,178.679 298.948,176.271 301.355 M214.651 301.231 C 211.472 303.732,211.184 314.464,214.215 317.495 C 215.998 319.278,221.534 319.477,223.494 317.828 C 226.080 315.652,226.096 303.562,223.516 301.390 C 221.884 300.018,216.321 299.918,214.651 301.231 M185.563 302.619 C 187.568 304.527,187.579 314.557,185.579 316.587 C 184.360 317.825,178.556 317.556,177.340 316.205 C 175.325 313.965,175.257 304.720,177.240 302.572 C 178.152 301.584,184.514 301.621,185.563 302.619 M222.851 302.653 C 224.049 304.078,224.693 309.138,224.091 312.400 C 223.327 316.534,223.019 316.800,219.000 316.800 C 214.982 316.800,214.675 316.535,213.904 312.400 C 213.271 309.005,213.878 304.040,215.089 302.701 C 215.982 301.715,222.030 301.677,222.851 302.653 M29.637 362.785 C 24.878 363.555,22.727 372.619,26.812 374.689 C 28.643 375.617,373.361 375.212,374.286 374.281 C 374.890 373.673,374.987 372.935,374.919 369.507 C 374.820 364.576,374.102 363.501,370.445 362.808 C 367.962 362.338,32.544 362.315,29.637 362.785 M368.731 366.000 C 368.970 366.727,371.204 369.007,371.900 369.236 C 372.176 369.326,372.446 370.120,372.500 371.000 L 372.600 372.600 200.420 372.700 C 103.029 372.757,28.090 372.650,27.893 372.453 C 27.190 371.750,28.024 369.358,29.218 368.653 C 29.852 368.278,30.682 367.446,31.061 366.804 C 31.441 366.161,32.122 365.562,32.576 365.471 C 35.389 364.910,368.545 365.434,368.731 366.000 " stroke="none" fill="#df4824" fill-rule="evenodd"></path><path id="path2" d="M105.919 25.347 C 99.886 26.366,99.999 25.657,99.999 62.684 C 100.000 100.001,99.826 99.007,106.523 99.943 C 110.834 100.546,258.970 100.561,265.200 99.960 C 267.510 99.737,274.890 99.408,281.600 99.230 C 300.156 98.735,298.735 100.156,299.230 81.600 C 299.408 74.890,299.737 67.510,299.960 65.200 C 300.183 62.890,300.373 55.022,300.383 47.716 C 300.409 27.201,300.098 26.126,293.877 25.257 C 289.250 24.610,109.773 24.697,105.919 25.347 M143.491 32.615 C 147.502 34.118,154.347 40.922,155.423 44.478 C 156.863 49.231,155.224 55.600,152.562 55.600 C 151.624 55.600,149.091 57.025,148.054 58.135 L 147.109 59.149 147.964 60.349 C 148.434 61.010,149.890 62.519,151.199 63.704 C 156.178 68.210,157.661 77.018,154.505 83.344 C 149.525 93.325,132.321 96.873,126.108 89.200 C 125.128 87.990,123.798 86.578,123.152 86.062 C 118.366 82.241,118.510 70.744,123.356 69.835 C 124.262 69.665,125.273 68.977,126.377 67.779 L 128.037 65.978 125.374 63.015 C 123.910 61.385,122.484 59.965,122.207 59.858 C 119.989 59.007,118.586 49.328,120.024 44.800 C 121.335 40.673,127.841 33.917,131.800 32.572 C 135.728 31.237,139.854 31.252,143.491 32.615 M275.358 32.804 C 278.784 34.107,285.682 41.032,286.585 44.075 C 288.732 51.303,287.239 57.119,281.844 62.547 C 276.948 67.472,275.483 68.186,269.362 68.630 C 265.474 68.913,265.372 68.946,263.900 70.412 L 262.400 71.906 262.385 78.853 C 262.362 90.009,261.715 92.056,258.058 92.557 C 250.310 93.619,250.400 93.968,250.400 62.839 C 250.400 33.045,250.414 32.964,255.800 32.050 C 260.278 31.290,272.630 31.766,275.358 32.804 M232.479 33.082 C 233.635 33.608,235.746 35.324,237.966 37.544 C 243.501 43.079,243.400 42.618,243.400 62.400 L 243.400 78.200 242.317 81.254 C 239.039 90.499,228.337 95.505,218.900 92.208 C 214.631 90.717,209.304 85.316,207.937 81.095 C 206.602 76.970,206.480 48.850,207.778 44.232 C 208.941 40.092,215.028 33.967,219.400 32.537 C 222.021 31.680,230.140 32.018,232.479 33.082 M173.758 34.129 C 174.543 35.181,174.614 35.896,174.800 44.660 L 175.000 54.064 176.494 55.432 C 177.954 56.768,178.068 56.800,181.441 56.800 L 184.894 56.800 186.447 55.247 L 188.000 53.694 188.015 46.747 C 188.041 34.279,188.676 32.800,194.000 32.800 C 200.093 32.800,199.971 32.184,199.971 62.800 C 199.971 93.323,200.162 92.375,194.000 92.375 C 188.565 92.375,188.041 91.190,188.015 78.853 L 188.000 71.906 186.447 70.353 L 184.894 68.800 181.400 68.800 L 177.906 68.800 176.353 70.353 L 174.800 71.906 174.790 80.053 C 174.776 92.018,174.720 92.146,169.274 92.530 C 162.704 92.994,162.853 93.680,162.839 62.800 C 162.826 31.918,162.663 32.692,169.132 32.886 C 172.759 32.995,172.951 33.047,173.758 34.129 M263.953 45.153 L 262.400 46.706 262.400 50.139 C 262.400 55.677,264.081 57.162,269.319 56.251 C 273.909 55.453,274.400 54.868,274.400 50.200 C 274.400 45.583,273.884 44.946,269.513 44.163 C 265.513 43.448,265.690 43.416,263.953 45.153 M133.270 45.726 C 131.890 47.195,131.975 53.461,133.393 54.793 C 136.170 57.402,143.561 57.550,144.619 55.017 C 145.232 53.548,143.741 48.040,142.131 45.829 C 141.054 44.350,134.633 44.275,133.270 45.726 M220.689 45.967 C 217.889 49.294,218.003 76.423,220.829 79.431 C 222.202 80.892,228.198 80.892,229.571 79.431 C 232.397 76.423,232.511 49.294,229.711 45.967 C 228.204 44.176,222.196 44.176,220.689 45.967 M132.800 68.938 C 130.214 69.791,129.815 71.443,131.253 75.347 C 133.013 80.124,133.366 80.400,137.706 80.400 C 142.410 80.400,142.773 80.028,142.773 75.200 C 142.773 70.952,142.247 70.164,138.909 69.416 C 134.903 68.518,134.234 68.466,132.800 68.938 M106.253 137.656 C 103.922 138.185,102.122 139.154,101.388 140.274 C 100.854 141.089,99.126 145.517,99.192 145.902 C 99.287 146.457,97.703 149.232,96.583 150.471 C 95.040 152.180,94.711 152.850,92.797 158.200 C 92.088 160.180,91.102 162.250,90.606 162.800 C 88.953 164.632,86.243 170.800,87.091 170.800 C 87.205 170.800,87.078 171.065,86.809 171.389 C 86.168 172.162,87.714 174.800,88.809 174.800 C 89.218 174.800,89.658 174.970,89.786 175.178 C 90.180 175.815,116.602 175.664,119.066 175.011 C 122.828 174.013,124.395 172.250,124.942 168.400 C 125.679 163.208,126.899 158.972,127.990 157.811 C 128.435 157.336,128.800 156.735,128.800 156.474 C 128.800 156.213,128.958 156.000,129.151 156.000 C 129.641 156.000,131.285 152.062,130.993 151.588 C 130.861 151.375,130.923 151.200,131.131 151.200 C 131.339 151.200,131.636 150.357,131.790 149.328 C 132.118 147.139,133.438 142.529,134.043 141.455 C 134.528 140.595,132.814 138.819,130.486 137.770 C 128.992 137.097,109.129 137.003,106.253 137.656 M189.000 137.955 C 186.701 139.394,186.133 140.456,185.841 143.859 C 185.762 144.771,185.609 145.671,185.500 145.859 C 185.391 146.046,185.180 147.100,185.030 148.200 C 184.880 149.300,184.507 151.010,184.201 152.000 C 183.894 152.990,183.525 154.520,183.382 155.400 C 183.238 156.280,183.043 157.360,182.948 157.800 C 181.674 163.730,181.157 171.857,181.963 173.276 C 183.102 175.282,184.119 175.400,200.200 175.400 C 216.281 175.400,217.298 175.282,218.437 173.276 C 219.243 171.857,218.726 163.730,217.452 157.800 C 217.357 157.360,217.162 156.280,217.018 155.400 C 216.875 154.520,216.506 152.990,216.199 152.000 C 215.893 151.010,215.520 149.300,215.370 148.200 C 215.220 147.100,215.009 146.046,214.900 145.859 C 214.791 145.671,214.638 144.771,214.559 143.859 C 214.269 140.480,213.407 138.951,211.120 137.762 C 209.267 136.798,190.587 136.961,189.000 137.955 M269.800 137.791 C 267.993 138.653,265.720 140.775,266.240 141.114 C 266.483 141.271,266.781 141.850,266.904 142.400 C 268.639 150.173,270.511 156.000,271.274 156.000 C 271.453 156.000,271.600 156.242,271.600 156.538 C 271.600 156.834,271.961 157.402,272.402 157.802 C 272.843 158.201,273.392 159.263,273.621 160.164 C 273.851 161.064,274.145 162.070,274.273 162.400 C 274.402 162.730,274.570 163.630,274.647 164.400 C 275.705 174.987,276.773 175.530,296.660 175.584 C 311.157 175.623,313.006 175.347,313.348 173.092 C 313.389 172.821,313.563 172.375,313.735 172.100 C 313.915 171.812,313.858 171.600,313.600 171.600 C 313.354 171.600,313.260 171.427,313.391 171.215 C 314.045 170.156,311.363 164.135,309.626 162.763 C 308.799 162.110,308.406 161.446,308.404 160.700 C 308.402 160.095,308.209 159.600,307.976 159.600 C 307.743 159.600,307.664 159.420,307.800 159.200 C 307.936 158.980,307.846 158.800,307.600 158.800 C 307.354 158.800,307.241 158.657,307.350 158.482 C 307.958 157.498,305.297 151.685,303.633 150.363 C 302.967 149.833,302.312 148.905,302.179 148.300 C 302.046 147.695,301.760 147.200,301.545 147.200 C 301.329 147.200,301.264 147.020,301.400 146.800 C 301.536 146.580,301.446 146.400,301.200 146.400 C 300.954 146.400,300.862 146.224,300.995 146.008 C 301.128 145.793,300.946 144.758,300.589 143.708 C 298.574 137.772,297.060 137.255,281.619 137.234 C 273.211 137.222,270.750 137.338,269.800 137.791 M130.689 139.746 C 131.994 140.631,132.301 141.041,132.038 141.546 C 131.850 141.906,131.299 143.962,130.812 146.116 C 129.968 149.851,129.342 151.337,126.459 156.455 C 125.521 158.120,125.082 159.565,124.779 161.982 C 123.997 168.217,121.860 172.051,118.204 173.781 L 116.050 174.800 103.439 174.800 L 90.828 174.800 89.428 173.571 L 88.029 172.342 89.016 169.719 C 89.559 168.276,90.687 166.071,91.524 164.819 C 92.360 163.567,93.241 162.016,93.483 161.371 C 95.624 155.656,96.607 153.552,97.564 152.635 C 98.778 151.472,99.748 149.470,101.391 144.738 C 103.360 139.065,105.167 138.428,119.000 138.528 L 129.000 138.600 130.689 139.746 M210.606 139.204 C 212.270 140.232,212.681 141.372,212.988 145.800 C 213.277 149.971,214.226 156.036,215.085 159.200 C 216.980 166.185,217.649 172.218,216.633 173.151 C 214.119 175.457,186.281 175.457,183.767 173.151 C 182.751 172.218,183.420 166.185,185.315 159.200 C 186.174 156.036,187.123 149.971,187.412 145.800 C 187.919 138.485,188.039 138.416,200.153 138.407 C 208.628 138.400,209.402 138.460,210.606 139.204 M293.777 139.406 C 297.847 140.882,297.572 140.499,300.595 148.925 C 300.974 149.984,301.967 151.637,302.800 152.600 C 303.633 153.563,304.634 155.216,305.024 156.275 C 305.413 157.334,305.882 158.371,306.066 158.580 C 306.250 158.789,306.402 159.239,306.404 159.580 C 306.410 160.503,308.335 164.474,309.250 165.451 C 309.689 165.919,310.590 167.629,311.252 169.251 L 312.457 172.200 310.962 173.500 L 309.467 174.800 296.909 174.800 L 284.350 174.800 282.215 173.790 C 278.580 172.070,276.963 169.217,275.427 161.809 C 274.658 158.102,274.131 156.600,272.852 154.474 C 270.861 151.163,270.528 150.295,269.550 145.845 C 269.121 143.889,268.599 141.973,268.392 141.586 C 268.006 140.864,268.639 140.265,271.200 138.927 C 273.270 137.846,290.482 138.211,293.777 139.406 " stroke="none" fill="#79ce3a" fill-rule="evenodd"></path><path id="path3" d="M95.000 9.596 C 86.956 9.996,86.019 10.430,85.047 14.200 C 84.392 16.743,84.476 108.857,85.137 111.260 C 86.266 115.369,86.122 115.347,112.500 115.492 L 134.400 115.613 134.400 118.807 L 134.400 122.000 91.255 122.000 C 47.246 122.000,44.794 122.078,42.800 123.542 C 41.598 124.424,40.895 127.255,40.839 131.445 L 40.800 134.290 38.163 134.502 C 34.593 134.789,34.622 134.736,34.462 141.219 L 34.323 146.800 32.612 146.800 C 28.668 146.800,28.493 146.936,28.185 150.221 L 27.910 153.154 25.817 153.415 C 22.364 153.847,22.026 154.560,22.010 161.445 L 22.000 165.490 19.363 165.702 C 15.487 166.013,15.800 163.822,15.800 190.652 C 15.800 217.949,15.435 215.600,19.676 215.600 L 22.000 215.600 22.000 218.386 C 22.000 221.673,22.336 222.000,25.718 222.000 L 27.889 222.000 28.245 224.900 L 28.600 227.800 34.700 227.910 L 40.800 228.021 40.800 287.399 L 40.800 346.778 28.500 346.915 C 11.929 347.100,11.018 347.364,9.970 352.286 C 9.425 354.844,9.171 388.843,9.688 390.100 C 9.961 390.766,19.317 390.796,200.288 390.700 L 390.600 390.600 390.599 372.200 C 390.597 345.116,392.129 347.145,371.500 346.915 L 359.200 346.778 359.200 287.389 L 359.200 228.000 365.186 228.000 C 372.089 228.000,372.000 228.049,372.000 224.226 L 372.000 222.000 374.520 222.000 C 377.708 222.000,378.000 221.691,378.000 218.320 L 378.000 215.600 380.400 215.600 C 384.736 215.600,384.400 217.691,384.400 190.676 C 384.400 163.979,384.702 166.028,380.721 165.709 L 378.090 165.498 377.935 160.198 C 377.753 153.969,377.653 153.778,374.382 153.398 L 372.000 153.121 372.000 150.589 C 372.000 147.745,371.425 146.807,369.671 146.789 C 369.018 146.783,368.033 146.251,367.147 145.427 L 365.694 144.075 365.537 139.848 C 365.353 134.876,365.286 134.779,361.837 134.502 L 359.200 134.290 359.161 131.445 C 359.105 127.255,358.402 124.424,357.200 123.542 C 355.206 122.078,352.754 122.000,308.745 122.000 L 265.600 122.000 265.600 118.807 L 265.600 115.613 287.500 115.489 C 314.015 115.338,313.665 115.393,314.868 111.194 C 315.531 108.880,315.611 16.755,314.953 14.200 C 313.962 10.357,313.339 10.090,304.200 9.590 C 296.933 9.193,102.985 9.198,95.000 9.596 M293.877 25.257 C 300.098 26.126,300.409 27.201,300.383 47.716 C 300.373 55.022,300.183 62.890,299.960 65.200 C 299.737 67.510,299.408 74.890,299.230 81.600 C 298.735 100.156,300.156 98.735,281.600 99.230 C 274.890 99.408,267.510 99.737,265.200 99.960 C 258.970 100.561,110.834 100.546,106.523 99.943 C 99.826 99.007,100.000 100.001,99.999 62.684 C 99.999 25.657,99.886 26.366,105.919 25.347 C 109.773 24.697,289.250 24.610,293.877 25.257 M131.800 32.572 C 127.841 33.917,121.335 40.673,120.024 44.800 C 118.586 49.328,119.989 59.007,122.207 59.858 C 122.484 59.965,123.910 61.385,125.374 63.015 L 128.037 65.978 126.377 67.779 C 125.273 68.977,124.262 69.665,123.356 69.835 C 118.510 70.744,118.366 82.241,123.152 86.062 C 123.798 86.578,125.128 87.990,126.108 89.200 C 132.321 96.873,149.525 93.325,154.505 83.344 C 157.661 77.018,156.178 68.210,151.199 63.704 C 149.890 62.519,148.434 61.010,147.964 60.349 L 147.109 59.149 148.054 58.135 C 149.091 57.025,151.624 55.600,152.562 55.600 C 155.224 55.600,156.863 49.231,155.423 44.478 C 154.347 40.922,147.502 34.118,143.491 32.615 C 139.854 31.252,135.728 31.237,131.800 32.572 M255.800 32.050 C 250.414 32.964,250.400 33.045,250.400 62.839 C 250.400 93.968,250.310 93.619,258.058 92.557 C 261.715 92.056,262.362 90.009,262.385 78.853 L 262.400 71.906 263.900 70.412 C 265.372 68.946,265.474 68.913,269.362 68.630 C 275.483 68.186,276.948 67.472,281.844 62.547 C 286.745 57.616,287.200 56.566,287.200 50.200 C 287.200 43.834,286.745 42.784,281.844 37.853 C 276.226 32.201,275.561 31.953,265.600 31.775 C 261.530 31.702,257.120 31.826,255.800 32.050 M219.400 32.537 C 215.028 33.967,208.941 40.092,207.778 44.232 C 206.480 48.850,206.602 76.970,207.937 81.095 C 209.304 85.316,214.631 90.717,218.900 92.208 C 228.337 95.505,239.039 90.499,242.317 81.254 L 243.400 78.200 243.400 62.400 C 243.400 42.618,243.501 43.079,237.966 37.544 C 233.194 32.772,232.043 32.259,225.800 32.120 C 222.652 32.050,220.449 32.194,219.400 32.537 M164.611 33.587 C 163.028 35.337,162.829 38.621,162.839 62.800 C 162.853 93.680,162.704 92.994,169.274 92.530 C 174.720 92.146,174.776 92.018,174.790 80.053 L 174.800 71.906 176.353 70.353 L 177.906 68.800 181.400 68.800 L 184.894 68.800 186.447 70.353 L 188.000 71.906 188.015 78.853 C 188.041 91.190,188.565 92.375,194.000 92.375 C 200.162 92.375,199.971 93.323,199.971 62.800 C 199.971 32.184,200.093 32.800,194.000 32.800 C 188.676 32.800,188.041 34.279,188.015 46.747 L 188.000 53.694 186.447 55.247 L 184.894 56.800 181.441 56.800 C 178.068 56.800,177.954 56.768,176.494 55.432 L 175.000 54.064 174.800 44.660 C 174.546 32.718,174.708 33.054,169.132 32.886 C 165.752 32.785,165.270 32.860,164.611 33.587 M269.513 44.163 C 273.884 44.946,274.400 45.583,274.400 50.200 C 274.400 54.868,273.909 55.453,269.319 56.251 C 264.081 57.162,262.400 55.677,262.400 50.139 L 262.400 46.706 263.953 45.153 C 265.690 43.416,265.513 43.448,269.513 44.163 M142.131 45.829 C 143.741 48.040,145.232 53.548,144.619 55.017 C 143.561 57.550,136.170 57.402,133.393 54.793 C 131.975 53.461,131.890 47.195,133.270 45.726 C 134.633 44.275,141.054 44.350,142.131 45.829 M229.711 45.967 C 232.511 49.294,232.397 76.423,229.571 79.431 C 228.198 80.892,222.202 80.892,220.829 79.431 C 218.003 76.423,217.889 49.294,220.689 45.967 C 222.196 44.176,228.204 44.176,229.711 45.967 M138.909 69.416 C 142.247 70.164,142.773 70.952,142.773 75.200 C 142.773 80.028,142.410 80.400,137.706 80.400 C 133.366 80.400,133.013 80.124,131.253 75.347 C 129.815 71.443,130.214 69.791,132.800 68.938 C 134.234 68.466,134.903 68.518,138.909 69.416 M248.431 114.369 C 249.074 115.012,249.611 115.777,249.625 116.069 C 249.638 116.361,249.781 117.912,249.942 119.515 C 250.220 122.296,250.184 122.488,249.161 123.715 L 248.088 125.000 200.200 125.000 L 152.312 125.000 151.239 123.715 C 150.216 122.488,150.180 122.296,150.458 119.515 C 150.619 117.912,150.762 116.361,150.775 116.069 C 150.789 115.777,151.326 115.012,151.969 114.369 L 153.138 113.200 200.200 113.200 L 247.262 113.200 248.431 114.369 M131.007 138.004 C 133.906 139.407,134.640 140.487,133.840 142.172 C 133.176 143.571,131.600 149.255,131.600 150.249 C 131.600 151.441,129.834 155.356,128.519 157.079 C 127.148 158.875,124.812 166.441,124.803 169.116 C 124.794 171.830,122.555 174.091,118.948 175.030 C 115.786 175.854,91.108 175.857,89.149 175.033 C 85.688 173.580,86.285 167.748,90.371 163.095 C 91.049 162.322,92.115 160.088,92.951 157.686 C 94.666 152.758,94.783 152.530,96.788 150.214 C 97.900 148.929,98.623 147.525,99.220 145.493 C 101.498 137.739,102.527 137.300,118.574 137.240 C 128.593 137.203,129.464 137.256,131.007 138.004 M211.172 137.786 C 213.568 139.024,214.185 140.300,214.970 145.635 C 215.372 148.366,215.871 151.050,216.079 151.600 C 216.853 153.643,218.010 160.228,218.616 166.028 C 219.637 175.806,220.434 175.400,200.200 175.400 C 179.966 175.400,180.763 175.806,181.784 166.028 C 182.390 160.228,183.547 153.643,184.321 151.600 C 184.529 151.050,185.027 148.375,185.427 145.656 C 186.204 140.372,186.672 139.354,188.965 137.956 C 190.628 136.942,209.264 136.799,211.172 137.786 M295.752 138.012 C 297.768 138.732,299.375 140.367,300.158 142.496 C 300.502 143.433,301.170 145.259,301.640 146.552 C 302.111 147.846,303.080 149.556,303.794 150.352 C 305.425 152.172,305.970 153.272,307.590 158.000 C 308.440 160.481,309.345 162.303,310.197 163.248 C 310.916 164.044,311.865 165.664,312.307 166.848 C 315.502 175.403,315.153 175.600,296.771 175.600 C 277.462 175.600,275.974 174.943,274.806 165.904 C 274.298 161.971,273.312 158.849,272.138 157.453 C 270.509 155.518,269.689 153.520,268.453 148.486 C 267.804 145.839,266.962 143.019,266.582 142.220 C 265.761 140.489,266.427 139.476,269.357 137.999 C 271.414 136.963,292.842 136.973,295.752 138.012 M86.305 138.732 C 88.305 140.157,88.482 140.782,87.566 143.193 C 86.454 146.118,85.377 148.155,84.600 148.800 C 83.722 149.529,82.489 151.997,81.391 155.228 C 80.548 157.704,79.783 159.069,77.403 162.337 C 76.286 163.871,74.803 167.609,74.793 168.915 C 74.757 173.840,70.702 175.202,56.200 175.157 C 37.953 175.101,35.900 174.263,40.581 168.778 C 41.589 167.598,42.932 165.270,43.801 163.199 C 44.620 161.244,45.641 159.319,46.068 158.922 C 48.451 156.707,49.018 155.938,50.254 153.240 C 50.999 151.611,52.292 149.539,53.125 148.635 C 53.959 147.730,55.328 145.619,56.168 143.942 C 59.227 137.835,60.036 137.573,75.404 137.718 C 84.722 137.806,85.047 137.836,86.305 138.732 M168.359 138.053 C 172.026 138.470,172.442 138.607,173.535 139.753 L 174.723 141.000 174.136 145.600 C 173.592 149.871,173.039 152.861,171.416 160.320 C 171.067 161.925,170.543 165.314,170.252 167.850 C 169.756 172.176,169.644 172.540,168.454 173.731 L 167.184 175.000 153.258 175.000 L 139.331 175.000 137.634 173.823 C 136.324 172.916,135.985 172.458,136.152 171.823 C 139.348 159.623,139.376 159.538,140.681 158.014 C 141.528 157.024,142.654 153.767,143.797 149.000 C 145.550 141.685,146.373 140.509,151.090 138.569 C 153.787 137.460,161.193 137.239,168.359 138.053 M250.012 138.838 C 254.069 140.740,254.976 142.079,256.439 148.312 C 257.727 153.797,258.786 157.035,259.570 157.875 C 260.875 159.277,262.185 163.166,264.266 171.823 C 264.417 172.450,264.058 172.928,262.766 173.823 L 261.069 175.000 247.142 175.000 L 233.216 175.000 231.946 173.731 C 230.756 172.540,230.644 172.176,230.148 167.850 C 229.857 165.314,229.333 161.925,228.984 160.320 C 227.361 152.861,226.808 149.871,226.264 145.600 L 225.677 141.000 226.883 139.736 C 229.131 137.377,245.540 136.740,250.012 138.838 M337.370 138.182 C 341.587 138.867,341.709 138.968,344.195 143.800 C 345.214 145.780,346.653 148.030,347.394 148.800 C 348.135 149.570,349.397 151.572,350.200 153.249 C 351.063 155.053,352.351 156.957,353.355 157.914 C 354.556 159.059,355.565 160.681,356.807 163.466 C 357.791 165.672,359.141 167.979,359.880 168.719 C 362.368 171.207,362.572 172.076,361.018 173.582 L 359.677 174.882 348.139 175.096 C 328.563 175.460,326.340 174.633,324.797 166.409 C 324.408 164.334,324.020 163.621,321.200 159.800 C 320.551 158.920,319.527 156.680,318.926 154.821 C 318.286 152.845,317.291 150.769,316.528 149.821 C 314.872 147.764,313.696 145.604,312.777 142.933 L 312.053 140.828 313.165 139.637 C 314.822 137.864,315.714 137.726,326.000 137.656 C 331.145 137.621,335.015 137.800,337.370 138.182 M117.081 187.984 C 119.297 189.335,119.659 190.564,119.229 195.284 C 118.609 202.086,118.199 202.970,113.692 207.217 C 108.237 212.357,107.628 212.600,100.200 212.600 C 92.772 212.600,92.163 212.357,86.708 207.217 C 82.201 202.970,81.791 202.086,81.171 195.284 C 80.428 187.119,80.230 187.203,100.200 187.203 C 114.968 187.203,115.868 187.245,117.081 187.984 M217.081 187.984 C 219.297 189.335,219.659 190.564,219.229 195.284 C 218.609 202.086,218.199 202.970,213.692 207.217 C 208.237 212.357,207.628 212.600,200.200 212.600 C 192.772 212.600,192.163 212.357,186.708 207.217 C 182.201 202.970,181.791 202.086,181.171 195.284 C 180.428 187.119,180.230 187.203,200.200 187.203 C 214.968 187.203,215.868 187.245,217.081 187.984 M317.081 187.984 C 319.297 189.335,319.659 190.564,319.229 195.284 C 318.609 202.086,318.199 202.970,313.692 207.217 C 308.237 212.357,307.628 212.600,300.200 212.600 C 292.772 212.600,292.163 212.357,286.708 207.217 C 282.201 202.970,281.791 202.086,281.171 195.284 C 280.428 187.119,280.230 187.203,300.200 187.203 C 314.968 187.203,315.868 187.245,317.081 187.984 M66.823 189.824 C 68.014 191.092,67.983 195.074,66.751 199.063 C 66.059 201.303,60.107 208.400,58.919 208.400 C 58.792 208.400,58.488 208.669,58.244 208.999 C 56.615 211.194,47.932 211.874,44.000 210.113 C 36.438 206.727,29.813 193.831,33.577 189.824 L 34.539 188.800 50.200 188.800 L 65.861 188.800 66.823 189.824 M166.823 189.824 C 168.014 191.092,167.983 195.074,166.751 199.063 C 166.059 201.303,160.107 208.400,158.919 208.400 C 158.792 208.400,158.488 208.669,158.244 208.999 C 156.615 211.194,147.932 211.874,144.000 210.113 C 136.438 206.727,129.813 193.831,133.577 189.824 L 134.539 188.800 150.200 188.800 L 165.861 188.800 166.823 189.824 M266.823 189.824 C 268.014 191.092,267.983 195.074,266.751 199.063 C 266.059 201.303,260.107 208.400,258.919 208.400 C 258.792 208.400,258.488 208.669,258.244 208.999 C 256.615 211.194,247.932 211.874,244.000 210.113 C 236.438 206.727,229.813 193.831,233.577 189.824 L 234.539 188.800 250.200 188.800 L 265.861 188.800 266.823 189.824 M366.823 189.824 C 368.014 191.092,367.983 195.074,366.751 199.063 C 366.059 201.303,360.107 208.400,358.919 208.400 C 358.792 208.400,358.488 208.669,358.244 208.999 C 356.615 211.194,347.932 211.874,344.000 210.113 C 336.438 206.727,329.813 193.831,333.577 189.824 L 334.539 188.800 350.200 188.800 L 365.861 188.800 366.823 189.824 M79.625 216.975 C 80.463 217.732,82.464 219.099,84.074 220.013 C 85.683 220.928,87.856 222.276,88.903 223.009 C 91.304 224.693,93.079 224.929,101.860 224.729 C 109.177 224.563,109.339 224.521,113.148 221.813 C 114.166 221.088,115.810 220.095,116.800 219.605 C 117.790 219.114,119.442 218.013,120.472 217.157 C 123.171 214.912,127.252 214.831,129.625 216.975 C 130.463 217.732,132.464 219.099,134.074 220.013 C 135.683 220.928,137.856 222.276,138.903 223.009 C 141.304 224.693,143.079 224.929,151.860 224.729 C 159.177 224.563,159.339 224.521,163.148 221.813 C 164.166 221.088,165.810 220.095,166.800 219.605 C 167.790 219.114,169.442 218.013,170.472 217.157 C 173.171 214.912,177.252 214.831,179.625 216.975 C 180.463 217.732,182.464 219.099,184.074 220.013 C 185.683 220.928,187.856 222.276,188.903 223.009 C 191.304 224.693,193.079 224.929,201.860 224.729 C 209.177 224.563,209.339 224.521,213.148 221.813 C 214.166 221.088,215.810 220.095,216.800 219.605 C 217.790 219.114,219.442 218.013,220.472 217.157 C 223.171 214.912,227.252 214.831,229.625 216.975 C 230.463 217.732,232.464 219.099,234.074 220.013 C 235.683 220.928,237.856 222.276,238.903 223.009 C 241.304 224.693,243.079 224.929,251.860 224.729 C 259.177 224.563,259.339 224.521,263.148 221.813 C 264.166 221.088,265.810 220.095,266.800 219.605 C 267.790 219.114,269.442 218.013,270.472 217.157 C 273.171 214.912,277.252 214.831,279.625 216.975 C 280.463 217.732,282.464 219.099,284.074 220.013 C 285.683 220.928,287.856 222.276,288.903 223.009 C 291.304 224.693,293.079 224.929,301.860 224.729 C 309.177 224.563,309.339 224.521,313.148 221.813 C 314.166 221.088,315.810 220.095,316.800 219.605 C 317.790 219.114,319.442 218.013,320.472 217.157 C 323.262 214.836,327.199 214.827,329.821 217.135 C 330.780 217.979,332.693 219.271,334.073 220.006 C 335.452 220.742,337.325 221.896,338.236 222.572 C 339.146 223.247,340.444 224.100,341.120 224.467 C 341.797 224.834,342.740 225.897,343.215 226.830 L 344.081 228.527 343.814 268.763 C 343.667 290.893,343.424 317.681,343.274 328.291 L 343.000 347.583 342.000 348.553 L 341.000 349.523 318.657 349.688 L 296.314 349.852 295.219 348.757 C 293.650 347.189,293.604 345.883,293.576 303.039 L 293.553 265.800 292.476 262.754 C 290.940 258.405,284.993 252.673,280.576 251.281 L 277.752 250.392 199.376 250.496 L 121.000 250.600 118.800 251.504 C 116.502 252.447,108.411 259.717,108.390 260.856 C 108.385 261.155,108.025 262.463,107.590 263.762 C 106.824 266.052,106.800 267.356,106.800 306.662 L 106.800 347.200 105.200 348.800 L 103.600 350.400 81.431 350.400 L 59.262 350.400 57.831 348.728 L 56.400 347.056 56.400 287.712 C 56.400 221.026,56.166 226.156,59.280 224.467 C 59.956 224.100,61.254 223.247,62.164 222.572 C 63.075 221.896,64.953 220.739,66.338 220.001 C 67.723 219.262,69.609 217.978,70.528 217.146 C 72.979 214.928,77.270 214.848,79.625 216.975 M192.044 262.832 C 194.735 264.748,194.639 262.194,194.134 318.196 L 193.867 347.723 192.745 349.002 L 191.622 350.280 157.055 350.573 C 118.684 350.898,120.860 351.030,119.184 348.281 C 118.270 346.782,117.948 276.206,118.823 269.190 C 119.449 264.169,120.403 263.096,124.800 262.469 C 130.916 261.597,190.764 261.920,192.044 262.832 M278.910 262.953 C 279.521 263.367,280.421 264.267,280.910 264.953 L 281.800 266.200 281.914 306.492 C 282.041 351.079,282.193 348.362,279.481 350.016 C 278.236 350.775,277.210 350.797,243.428 350.799 L 208.657 350.800 207.328 349.350 L 206.000 347.899 206.000 306.412 L 206.000 264.925 207.300 263.453 L 208.600 261.982 243.200 262.091 C 276.317 262.195,277.848 262.232,278.910 262.953 M177.240 302.572 C 175.257 304.720,175.325 313.965,177.340 316.205 C 178.556 317.556,184.360 317.825,185.579 316.587 C 187.579 314.557,187.568 304.527,185.563 302.619 C 184.514 301.621,178.152 301.584,177.240 302.572 M215.089 302.701 C 213.878 304.040,213.271 309.005,213.904 312.400 C 214.675 316.535,214.982 316.800,219.000 316.800 C 223.019 316.800,223.327 316.534,224.091 312.400 C 224.693 309.138,224.049 304.078,222.851 302.653 C 222.030 301.677,215.982 301.715,215.089 302.701 M370.445 362.808 C 374.102 363.501,374.820 364.576,374.919 369.507 C 374.987 372.935,374.890 373.673,374.286 374.281 C 373.361 375.212,28.643 375.617,26.812 374.689 C 22.727 372.619,24.878 363.555,29.637 362.785 C 32.544 362.315,367.962 362.338,370.445 362.808 " stroke="none" fill="#241c24" fill-rule="evenodd"></path><path id="path4" d="M106.433 139.427 C 103.045 140.708,102.642 141.133,101.391 144.738 C 99.748 149.470,98.778 151.472,97.564 152.635 C 96.607 153.552,95.624 155.656,93.483 161.371 C 93.241 162.016,92.360 163.567,91.524 164.819 C 90.687 166.071,89.559 168.276,89.016 169.719 L 88.029 172.342 89.428 173.571 L 90.828 174.800 103.439 174.800 L 116.050 174.800 118.204 173.781 C 121.860 172.051,123.997 168.217,124.779 161.982 C 125.082 159.565,125.521 158.120,126.459 156.455 C 129.342 151.337,129.968 149.851,130.812 146.116 C 131.299 143.962,131.850 141.906,132.038 141.546 C 132.301 141.041,131.994 140.631,130.689 139.746 L 129.000 138.600 119.000 138.528 C 109.294 138.457,108.924 138.484,106.433 139.427 M189.744 139.218 C 188.123 140.257,187.717 141.403,187.412 145.800 C 187.123 149.971,186.174 156.036,185.315 159.200 C 183.420 166.185,182.751 172.218,183.767 173.151 C 186.281 175.457,214.119 175.457,216.633 173.151 C 217.649 172.218,216.980 166.185,215.085 159.200 C 214.226 156.036,213.277 149.971,212.988 145.800 C 212.481 138.484,212.332 138.398,200.153 138.407 C 191.671 138.413,190.908 138.472,189.744 139.218 M271.200 138.927 C 268.639 140.265,268.006 140.864,268.392 141.586 C 268.599 141.973,269.121 143.889,269.550 145.845 C 270.528 150.295,270.861 151.163,272.852 154.474 C 274.131 156.600,274.658 158.102,275.427 161.809 C 276.963 169.217,278.580 172.070,282.215 173.790 L 284.350 174.800 296.909 174.800 L 309.467 174.800 310.962 173.500 L 312.457 172.200 311.252 169.251 C 310.590 167.629,309.689 165.919,309.250 165.451 C 308.335 164.474,306.410 160.503,306.404 159.580 C 306.402 159.239,306.250 158.789,306.066 158.580 C 305.882 158.371,305.413 157.334,305.024 156.275 C 304.634 155.216,303.633 153.563,302.800 152.600 C 301.967 151.637,300.974 149.984,300.595 148.925 C 297.572 140.499,297.847 140.882,293.777 139.406 C 290.482 138.211,273.270 137.846,271.200 138.927 M83.210 189.790 C 80.504 192.670,83.059 200.968,88.185 205.944 C 93.625 211.225,99.777 212.785,106.164 210.502 C 109.484 209.316,115.710 203.076,116.779 199.864 C 118.150 195.742,118.344 191.017,117.190 189.790 L 116.261 188.800 100.200 188.800 L 84.139 188.800 83.210 189.790 M183.210 189.790 C 180.504 192.670,183.059 200.968,188.185 205.944 C 193.625 211.225,199.777 212.785,206.164 210.502 C 209.484 209.316,215.710 203.076,216.779 199.864 C 218.150 195.742,218.344 191.017,217.190 189.790 L 216.261 188.800 200.200 188.800 L 184.139 188.800 183.210 189.790 M283.210 189.790 C 280.504 192.670,283.059 200.968,288.185 205.944 C 293.625 211.225,299.777 212.785,306.164 210.502 C 309.484 209.316,315.710 203.076,316.779 199.864 C 318.150 195.742,318.344 191.017,317.190 189.790 L 316.261 188.800 300.200 188.800 L 284.139 188.800 283.210 189.790 M208.977 263.506 C 207.125 264.792,207.200 262.986,207.200 306.327 C 207.200 350.439,207.116 348.739,209.331 349.442 C 211.800 350.225,278.770 349.084,279.543 348.245 C 280.298 347.425,280.330 346.290,280.609 310.000 C 280.968 263.225,281.158 264.977,275.595 263.784 C 272.760 263.177,209.830 262.914,208.977 263.506 M124.338 264.148 C 119.815 265.247,120.000 263.322,120.000 309.276 L 120.000 347.461 120.981 348.382 L 121.962 349.304 156.671 349.005 C 187.039 348.744,191.436 348.630,191.825 348.098 C 192.295 347.456,192.812 311.363,192.786 281.000 C 192.774 266.338,192.728 265.346,192.023 264.500 L 191.272 263.600 158.736 263.648 C 136.046 263.681,125.637 263.832,124.338 264.148 M185.538 300.634 C 189.805 303.181,190.073 316.211,185.910 318.709 C 183.690 320.040,178.059 319.444,176.306 317.691 C 173.893 315.280,173.869 303.758,176.271 301.355 C 177.873 299.754,183.349 299.327,185.538 300.634 M223.516 301.390 C 226.096 303.562,226.080 315.652,223.494 317.828 C 221.534 319.477,215.998 319.278,214.215 317.495 C 211.184 314.464,211.472 303.732,214.651 301.231 C 216.321 299.918,221.884 300.018,223.516 301.390 M32.576 365.471 C 32.122 365.562,31.441 366.161,31.061 366.804 C 30.682 367.446,29.852 368.278,29.218 368.653 C 28.024 369.358,27.190 371.750,27.893 372.453 C 28.090 372.650,103.029 372.757,200.420 372.700 L 372.600 372.600 372.500 371.000 C 372.446 370.120,372.176 369.326,371.900 369.236 C 371.204 369.007,368.970 366.727,368.731 366.000 C 368.545 365.434,35.389 364.910,32.576 365.471 " stroke="none" fill="#eeb204" fill-rule="evenodd"></path></g></svg>